# xmcd
#
# Track frame offsets: 
#        150
#        14258
#        28202
#        40982
#        53633
#        68264
#        83267
#        97820
#        111519
#        124546
#        138760
#        153740
#        166733
#        181490
#        196190
#        210416
#        223245
#        235823
#        250537
#        264375
#        278093
#        292291
#        306707
#        337278
#
# Disc length: 4787 seconds
#
# Revision: 0
# Processed by: cddbd v1.5.2PL0 Copyright (c) Steve Scherf et al.
# Submitted via: ExactAudioCopyFreeDBPlugin 1.0
#
DISCID=5712b118
DTITLE=Various Artist - Piano Blues Vol. 1 (1927-1936)
DYEAR=1993
DGENRE=Blues
TTITLE0=Bert M. Mays - Midnight Rambler's Blues
TTITLE1=Bert M. Mays - Oh-Oh Blues
TTITLE2=Bert M. Mays - Troublesome Mind Blues
TTITLE3=Bert M. Mays - Mama's Man Blues
TTITLE4=Bert M. Mays - Michigan River Blues
TTITLE5=Bert M. Mays - You Can't Come In
TTITLE6=Blind Clyde Church - Number Nine Blues
TTITLE7=Blind Clyde Church - Pneumatic Blues
TTITLE8=Dan Stewart - New Orleans Blues
TTITLE9=Jim Clarke - Fat Fanny Stomp
TTITLE10=Judson Brown - You Don't Know My Mind Blues
TTITLE11=Joe Dean (From Bowling Green) - Mexico Bound Blues
TTITLE12=Joe Dean (From Bowling Green) - I'm So Glad I'm Twenty-One Ye
TTITLE12=ars Old Today
TTITLE13=James "Bat" Robinson - You Left Me Alone
TTITLE14=James "Bat" Robinson - Bat's Own Blues
TTITLE15=James "Bat" Robinson - Humming Blues
TTITLE16=Pigmeat Terry - Moaning the Blues
TTITLE17=Pigmeat Terry - Black Sheep Blues
TTITLE18=Jesse James - Sweet Patuni
TTITLE19=Jesse James - Southern Casey Jones
TTITLE20=Jesse James - Lonesome Day Blues
TTITLE21=Jesse James - Highway 61
TTITLE22=James Bat "The Hummingbird" Robinson - Bat's Blues
TTITLE23=James Bat "The Hummingbird" Robinson - Four O'Clock
EXTD=
EXTT0=
EXTT1=
EXTT2=
EXTT3=
EXTT4=
EXTT5=
EXTT6=
EXTT7=
EXTT8=
EXTT9=
EXTT10=
EXTT11=
EXTT12=
EXTT13=
EXTT14=
EXTT15=
EXTT16=
EXTT17=
EXTT18=
EXTT19=
EXTT20=
EXTT21=
EXTT22=
EXTT23=
PLAYORDER=
